<svg xmlns="http://www.w3.org/2000/svg" viewBox="0 0 200 50">
  <path fill="#0f4b7f" d="M20 10c5.523 0 10 4.477 10 10s-4.477 10-10 10-10-4.477-10-10 4.477-10 10-10zm0 2c-4.418 0-8 3.582-8 8s3.582 8 8 8 8-3.582 8-8-3.582-8-8-8z"/>
  <path fill="#0f4b7f" d="M50 10c5.523 0 10 4.477 10 10s-4.477 10-10 10-10-4.477-10-10 4.477-10 10-10zm0 2c-4.418 0-8 3.582-8 8s3.582 8 8 8 8-3.582 8-8-3.582-8-8-8z"/>
  <path fill="#0f4b7f" d="M80 10h20v20H80z"/>
  <path fill="#0f4b7f" d="M110 10h60v5h-60zM110 17.5h60v5h-60zM110 25h60v5h-60z"/>
</svg>
